# xmcd
#
# Track frame offsets:
#	150
#	9739
#	20025
#	35556
#	46368
#	58423
#	71855
#	80048
#	94036
#	107005
#	117368
#	130231
#	142846
#	157006
#	170116
#	180793
#	197071
#	211080
#	224030
#	236426
#
# Disc length: 3333 seconds
#
# Revision: 1
# Processed by: cddbd v1.5.2PL0 Copyright (c) Steve Scherf et al.
# Submitted via: audiograbber 1.83.01
#
DISCID=290d0314
DTITLE=Teddy and Rubi Nelson - Langs Norskekysten Disc 1
DYEAR=2014
DGENRE=Country
TTITLE0=Ola Med Sjød'n
TTITLE1=Diggy Liggy
TTITLE2=Skilsmisseferd I Hardanger
TTITLE3=Haukeli Topp
TTITLE4=Minus 40 I Kautokeino
TTITLE5=Dans - Dans
TTITLE6=I Et Jailhouse I Vesten
TTITLE7=Bonde I Frå Hamlagrø
TTITLE8=Avsted Igjen
TTITLE9=O'Boy
TTITLE10=Hallingdøl
TTITLE11=Veien Til Suksess
TTITLE12=Dans I Seljord
TTITLE13=Han Er Ikkje God
TTITLE14=Taske-Jenny
TTITLE15=Kystens Riksveg Nr. 1
TTITLE16=Svenn Rasmussen
TTITLE17=Jeg Reiste Ut En Gang
TTITLE18=Du Ser Han Aldri Igjen
TTITLE19=Den Fredløse
EXTD=
EXTT0=
EXTT1=
EXTT2=
EXTT3=
EXTT4=
EXTT5=
EXTT6=
EXTT7=
EXTT8=
EXTT9=
EXTT10=
EXTT11=
EXTT12=
EXTT13=
EXTT14=
EXTT15=
EXTT16=
EXTT17=
EXTT18=
EXTT19=
PLAYORDER=
